M48
; DRILL file {KiCad (5.99.0-10431-gb63c482347)} date Wed Apr 28 00:03:03 2021
; FORMAT={-:-/ absolute / inch / decimal}
; #@! TF.CreationDate,2021-04-28T00:03:03+02:00
; #@! TF.GenerationSoftware,Kicad,Pcbnew,(5.99.0-10431-gb63c482347)
; #@! TF.FileFunction,Plated,1,2,PTH
FMAT,2
INCH
; #@! TA.AperFunction,Plated,PTH,ViaDrill
T1C0.0118
; #@! TA.AperFunction,Plated,PTH,ViaDrill
T2C0.0157
; #@! TA.AperFunction,Plated,PTH,ComponentDrill
T3C0.0400
; #@! TA.AperFunction,Plated,PTH,ComponentDrill
T4C0.0433
; #@! TA.AperFunction,Plated,PTH,ComponentDrill
T5C0.0551
%
G90
G05
T1
X4.8205Y-3.2883
X4.8504Y-2.3706
X4.8681Y-2.8351
X4.8972Y-3.0973
X4.9709Y-3.4749
X5.013Y-2.3654
X5.2642Y-3.4127
X5.352Y-3.6347
X5.3524Y-3.5332
X5.3528Y-3.7336
T2
X4.7417Y-2.8966
X4.7472Y-3.7662
X4.7532Y-2.8139
X4.7535Y-3.3084
X4.7618Y-4.4887
X4.7698Y-3.0536
X4.7721Y-3.2182
X4.7784Y-3.8313
X4.7933Y-2.7249
X4.7992Y-3.3116
X4.8063Y-3.3855
X4.8813Y-3.1274
X4.8815Y-3.4906
X4.8972Y-3.9147
X4.8984Y-3.8036
X4.9154Y-3.5981
X4.926Y-3.4273
X4.93Y-3.2307
X4.9303Y-3.9643
X4.9319Y-3.8985
X4.9469Y-3.0182
X4.9508Y-3.256
X4.9583Y-3.1387
X4.9858Y-3.9072
X5.0028Y-3.2399
X5.0268Y-3.6127
X5.037Y-3.258
X5.0501Y-3.5633
X5.0528Y-3.3962
X5.0732Y-3.6603
X5.0748Y-3.5359
X5.0843Y-3.8788
X5.085Y-3.4383
X5.0976Y-3.2162
X5.0989Y-3.3488
X5.111Y-3.3103
X5.1138Y-3.2504
X5.1221Y-4.1552
X5.139Y-2.5501
X5.1486Y-3.9265
X5.1539Y-2.9379
X5.1661Y-4.5328
X5.1764Y-4.0891
X5.189Y-4.5954
X5.2323Y-4.7414
X5.263Y-4.7698
X5.2736Y-4.8304
X5.3059Y-4.769
X5.3134Y-2.7903
X5.3146Y-4.8316
X5.315Y-3.3178
X5.324Y-4.598
X5.3425Y-4.4107
X5.3488Y-4.8305
X5.3577Y-4.7438
X5.3776Y-4.4174
X5.3969Y-4.6387
X5.3988Y-4.7462
X5.3996Y-2.8599
X5.4169Y-4.4257
X5.4315Y-2.9985
X5.4425Y-4.143
X5.4862Y-4.241
X5.489Y-4.484
X5.4925Y-4.4367
X5.5287Y-4.3005
X5.5311Y-4.5135
X5.535Y-2.9977
X5.539Y-4.4312
X5.5501Y-4.5684
X5.5697Y-4.2418
X5.5806Y-4.5022
X5.5969Y-4.7875
X5.6299Y-4.7918
X5.6329Y-4.2453
X5.6331Y-3.2158
X5.6496Y-4.4784
X5.6635Y-4.5982
X5.6643Y-4.247
X5.674Y-4.4369
X5.6787Y-3.1123
X5.6898Y-4.7985
X5.6933Y-4.6091
X5.7143Y-4.5049
X5.7193Y-4.7729
X5.7209Y-3.2473
X5.7252Y-3.8702
X5.7358Y-4.1406
X5.7398Y-4.5749
X5.7515Y-4.4677
X5.7591Y-4.7769
X5.8114Y-4.7682
X5.8185Y-4.6431
X5.8295Y-4.8084
X5.8358Y-3.195
X5.8555Y-4.7631
X5.878Y-3.83
X5.8811Y-3.3123
X5.9071Y-4.519
X5.9284Y-4.6431
X5.9634Y-4.5182
X6.0008Y-2.6926
X6.0165Y-3.0225
X6.0213Y-2.9572
X6.0303Y-2.5875
X6.0709Y-2.734
X6.074Y-2.6717
X6.0803Y-2.8903
X6.1091Y-2.819
X6.1902Y-2.5017
X6.2508Y-2.6757
X6.361Y-2.8379
X6.363Y-2.6934
X6.3638Y-2.7548
T3
X4.5815Y-2.456
X4.5815Y-2.556
X4.5815Y-2.656
X4.5815Y-2.756
X4.5815Y-2.856
X4.5815Y-2.956
X4.5815Y-3.056
X4.5815Y-3.156
X4.5815Y-3.256
X4.5815Y-3.356
X4.5815Y-3.456
X4.5815Y-3.556
X4.5815Y-3.656
X4.5815Y-3.756
X4.5815Y-3.856
X4.5815Y-3.956
X4.5815Y-4.056
X4.5815Y-4.156
X4.5815Y-4.256
X4.5815Y-4.356
X4.5815Y-4.456
X4.5815Y-4.556
X4.5815Y-4.656
X4.6815Y-2.456
X4.6815Y-2.556
X4.6815Y-2.656
X4.6815Y-2.756
X4.6815Y-2.856
X4.6815Y-2.956
X4.6815Y-3.056
X4.6815Y-3.156
X4.6815Y-3.256
X4.6815Y-3.356
X4.6815Y-3.456
X4.6815Y-3.556
X4.6815Y-3.656
X4.6815Y-3.756
X4.6815Y-3.856
X4.6815Y-3.956
X4.6815Y-4.056
X4.6815Y-4.156
X4.6815Y-4.256
X4.6815Y-4.356
X4.6815Y-4.456
X4.6815Y-4.556
X4.6815Y-4.656
X6.4815Y-2.456
X6.4815Y-2.556
X6.4815Y-2.656
X6.4815Y-2.756
X6.4815Y-2.856
X6.4815Y-2.956
X6.4815Y-3.056
X6.4815Y-3.156
X6.4815Y-3.256
X6.4815Y-3.356
X6.4815Y-3.456
X6.4815Y-3.556
X6.4815Y-3.656
X6.4815Y-3.756
X6.4815Y-3.856
X6.4815Y-3.956
X6.4815Y-4.056
X6.4815Y-4.156
X6.4815Y-4.256
X6.4815Y-4.356
X6.4815Y-4.456
X6.4815Y-4.556
X6.4815Y-4.656
X6.5815Y-2.456
X6.5815Y-2.556
X6.5815Y-2.656
X6.5815Y-2.756
X6.5815Y-2.856
X6.5815Y-2.956
X6.5815Y-3.056
X6.5815Y-3.156
X6.5815Y-3.256
X6.5815Y-3.356
X6.5815Y-3.456
X6.5815Y-3.556
X6.5815Y-3.656
X6.5815Y-3.756
X6.5815Y-3.856
X6.5815Y-3.956
X6.5815Y-4.056
X6.5815Y-4.156
X6.5815Y-4.256
X6.5815Y-4.356
X6.5815Y-4.456
X6.5815Y-4.556
X6.5815Y-4.656
T4
X6.152Y-3.0942
X6.152Y-3.2469
X6.252Y-3.0942
X6.252Y-3.2469
T5
X4.728Y-2.1194
X4.9248Y-2.1194
X5.1217Y-2.1194
X6.1465Y-2.1891
X6.3433Y-2.1891
X6.5402Y-2.1891
T0
M30
