%TF.GenerationSoftware,KiCad,Pcbnew,5.99.0-unknown-b63c482347~127~ubuntu20.04.1*%
%TF.CreationDate,2021-04-29T12:02:14+02:00*%
%TF.ProjectId,bbb-lcd-rgb-display-cape,6262622d-6c63-4642-9d72-67622d646973,V1.0*%
%TF.SameCoordinates,Original*%
%TF.FileFunction,Soldermask,Top*%
%TF.FilePolarity,Negative*%
%FSLAX46Y46*%
G04 Gerber Fmt 4.6, Leading zero omitted, Abs format (unit mm)*
G04 Created by KiCad (PCBNEW 5.99.0-unknown-b63c482347~127~ubuntu20.04.1) date 2021-04-29 12:02:14*
%MOMM*%
%LPD*%
G01*
G04 APERTURE LIST*
G04 Aperture macros list*
%AMRoundRect*
0 Rectangle with rounded corners*
0 $1 Rounding radius*
0 $2 $3 $4 $5 $6 $7 $8 $9 X,Y pos of 4 corners*
0 Add a 4 corners polygon primitive as box body*
4,1,4,$2,$3,$4,$5,$6,$7,$8,$9,$2,$3,0*
0 Add four circle primitives for the rounded corners*
1,1,$1+$1,$2,$3*
1,1,$1+$1,$4,$5*
1,1,$1+$1,$6,$7*
1,1,$1+$1,$8,$9*
0 Add four rect primitives between the rounded corners*
20,1,$1+$1,$2,$3,$4,$5,0*
20,1,$1+$1,$4,$5,$6,$7,0*
20,1,$1+$1,$6,$7,$8,$9,0*
20,1,$1+$1,$8,$9,$2,$3,0*%
G04 Aperture macros list end*
%ADD10R,1.727200X1.727200*%
%ADD11O,1.727200X1.727200*%
%ADD12RoundRect,0.010000X0.500000X-0.300000X0.500000X0.300000X-0.500000X0.300000X-0.500000X-0.300000X0*%
%ADD13RoundRect,0.010000X-0.300000X-0.500000X0.300000X-0.500000X0.300000X0.500000X-0.300000X0.500000X0*%
%ADD14RoundRect,0.010000X0.300000X0.500000X-0.300000X0.500000X-0.300000X-0.500000X0.300000X-0.500000X0*%
%ADD15R,1.397000X0.889000*%
%ADD16RoundRect,0.030000X-0.725000X-0.225000X0.725000X-0.225000X0.725000X0.225000X-0.725000X0.225000X0*%
%ADD17RoundRect,0.010000X-0.444500X-0.698500X0.444500X-0.698500X0.444500X0.698500X-0.444500X0.698500X0*%
%ADD18RoundRect,0.200000X-0.800000X1.250000X-0.800000X-1.250000X0.800000X-1.250000X0.800000X1.250000X0*%
%ADD19R,1.524000X1.850000*%
%ADD20O,1.524000X1.850000*%
%ADD21R,0.600000X1.000000*%
%ADD22RoundRect,0.010000X-0.500000X0.300000X-0.500000X-0.300000X0.500000X-0.300000X0.500000X0.300000X0*%
%ADD23R,1.000000X0.600000*%
%ADD24RoundRect,0.030000X-0.300000X0.300000X-0.300000X-0.300000X0.300000X-0.300000X0.300000X0.300000X0*%
%ADD25RoundRect,0.010000X-0.400000X-0.500000X0.400000X-0.500000X0.400000X0.500000X-0.400000X0.500000X0*%
%ADD26R,2.032000X1.524000*%
%ADD27RoundRect,0.050000X-1.016000X0.762000X-1.016000X-0.762000X1.016000X-0.762000X1.016000X0.762000X0*%
%ADD28RoundRect,0.010000X-0.655000X0.325000X-0.655000X-0.325000X0.655000X-0.325000X0.655000X0.325000X0*%
%ADD29R,0.914400X0.914400*%
%ADD30O,0.450000X0.950000*%
%ADD31C,3.200000*%
%ADD32RoundRect,0.200000X0.800000X-1.250000X0.800000X1.250000X-0.800000X1.250000X-0.800000X-1.250000X0*%
%ADD33RoundRect,0.400000X-1.450000X0.400000X-1.450000X-0.400000X1.450000X-0.400000X1.450000X0.400000X0*%
%ADD34RoundRect,0.050000X0.300000X0.225000X-0.300000X0.225000X-0.300000X-0.225000X0.300000X-0.225000X0*%
%ADD35O,1.650000X0.700000*%
%ADD36RoundRect,0.080000X-0.457200X-0.457200X0.457200X-0.457200X0.457200X0.457200X-0.457200X0.457200X0*%
%ADD37RoundRect,0.515000X0.515000X1.015000X-0.515000X1.015000X-0.515000X-1.015000X0.515000X-1.015000X0*%
%ADD38RoundRect,0.080000X0.080000X0.555000X-0.080000X0.555000X-0.080000X-0.555000X0.080000X-0.555000X0*%
%ADD39RoundRect,0.080000X0.450000X-0.350000X0.450000X0.350000X-0.450000X0.350000X-0.450000X-0.350000X0*%
%ADD40RoundRect,0.010000X-0.700000X-0.200000X0.700000X-0.200000X0.700000X0.200000X-0.700000X0.200000X0*%
G04 APERTURE END LIST*
D10*
%TO.C,P8*%
X164630100Y-62382400D03*
D11*
X167170100Y-62382400D03*
X164630100Y-64922400D03*
X167170100Y-64922400D03*
X164630100Y-67462400D03*
X167170100Y-67462400D03*
X164630100Y-70002400D03*
X167170100Y-70002400D03*
X164630100Y-72542400D03*
X167170100Y-72542400D03*
X164630100Y-75082400D03*
X167170100Y-75082400D03*
X164630100Y-77622400D03*
X167170100Y-77622400D03*
X164630100Y-80162400D03*
X167170100Y-80162400D03*
X164630100Y-82702400D03*
X167170100Y-82702400D03*
X164630100Y-85242400D03*
X167170100Y-85242400D03*
X164630100Y-87782400D03*
X167170100Y-87782400D03*
X164630100Y-90322400D03*
X167170100Y-90322400D03*
X164630100Y-92862400D03*
X167170100Y-92862400D03*
X164630100Y-95402400D03*
X167170100Y-95402400D03*
X164630100Y-97942400D03*
X167170100Y-97942400D03*
X164630100Y-100482400D03*
X167170100Y-100482400D03*
X164630100Y-103022400D03*
X167170100Y-103022400D03*
X164630100Y-105562400D03*
X167170100Y-105562400D03*
X164630100Y-108102400D03*
X167170100Y-108102400D03*
X164630100Y-110642400D03*
X167170100Y-110642400D03*
X164630100Y-113182400D03*
X167170100Y-113182400D03*
X164630100Y-115722400D03*
X167170100Y-115722400D03*
X164630100Y-118262400D03*
X167170100Y-118262400D03*
%TD*%
D10*
%TO.C,P9*%
X116370100Y-62382400D03*
D11*
X118910100Y-62382400D03*
X116370100Y-64922400D03*
X118910100Y-64922400D03*
X116370100Y-67462400D03*
X118910100Y-67462400D03*
X116370100Y-70002400D03*
X118910100Y-70002400D03*
X116370100Y-72542400D03*
X118910100Y-72542400D03*
X116370100Y-75082400D03*
X118910100Y-75082400D03*
X116370100Y-77622400D03*
X118910100Y-77622400D03*
X116370100Y-80162400D03*
X118910100Y-80162400D03*
X116370100Y-82702400D03*
X118910100Y-82702400D03*
X116370100Y-85242400D03*
X118910100Y-85242400D03*
X116370100Y-87782400D03*
X118910100Y-87782400D03*
X116370100Y-90322400D03*
X118910100Y-90322400D03*
X116370100Y-92862400D03*
X118910100Y-92862400D03*
X116370100Y-95402400D03*
X118910100Y-95402400D03*
X116370100Y-97942400D03*
X118910100Y-97942400D03*
X116370100Y-100482400D03*
X118910100Y-100482400D03*
X116370100Y-103022400D03*
X118910100Y-103022400D03*
X116370100Y-105562400D03*
X118910100Y-105562400D03*
X116370100Y-108102400D03*
X118910100Y-108102400D03*
X116370100Y-110642400D03*
X118910100Y-110642400D03*
X116370100Y-113182400D03*
X118910100Y-113182400D03*
X116370100Y-115722400D03*
X118910100Y-115722400D03*
X116370100Y-118262400D03*
X118910100Y-118262400D03*
%TD*%
D12*
%TO.C,R21*%
X153670100Y-99152400D03*
X153670100Y-97752400D03*
%TD*%
D13*
%TO.C,R13*%
X129990100Y-89752400D03*
X131390100Y-89752400D03*
%TD*%
D12*
%TO.C,C8*%
X148080100Y-101332400D03*
X148080100Y-99932400D03*
%TD*%
D14*
%TO.C,R18*%
X124290100Y-77592400D03*
X122890100Y-77592400D03*
%TD*%
D12*
%TO.C,R6*%
X146610100Y-101332400D03*
X146610100Y-99932400D03*
%TD*%
D15*
%TO.C,R7*%
X158360100Y-75994900D03*
X158360100Y-74089900D03*
%TD*%
D12*
%TO.C,R1*%
X131220100Y-117342400D03*
X131220100Y-115942400D03*
%TD*%
D16*
%TO.C,U6*%
X122860100Y-79337400D03*
X122860100Y-79987400D03*
X122860100Y-80637400D03*
X122860100Y-81287400D03*
X127260100Y-81287400D03*
X127260100Y-80637400D03*
X127260100Y-79987400D03*
X127260100Y-79337400D03*
%TD*%
D13*
%TO.C,R19*%
X123300100Y-83652400D03*
X124700100Y-83652400D03*
%TD*%
D17*
%TO.C,D10*%
X134982600Y-89742400D03*
X133077600Y-89742400D03*
%TD*%
D18*
%TO.C,Sw3*%
X127210100Y-94302400D03*
X127210100Y-101802400D03*
%TD*%
D19*
%TO.C,P4*%
X156260100Y-82472400D03*
D20*
X158800100Y-82472400D03*
%TD*%
D21*
%TO.C,C7*%
X150581850Y-95912400D03*
X151981850Y-95912400D03*
%TD*%
D22*
%TO.C,R3*%
X135960100Y-113072400D03*
X135960100Y-114472400D03*
%TD*%
D23*
%TO.C,C6*%
X153640100Y-95892400D03*
X153640100Y-94492400D03*
%TD*%
D17*
%TO.C,D11*%
X134982600Y-92332400D03*
X133077600Y-92332400D03*
%TD*%
D13*
%TO.C,R22*%
X153680100Y-110152400D03*
X155080100Y-110152400D03*
%TD*%
D23*
%TO.C,C2*%
X134470100Y-117462400D03*
X134470100Y-116062400D03*
%TD*%
D14*
%TO.C,R29*%
X122970100Y-91762400D03*
X121570100Y-91762400D03*
%TD*%
D24*
%TO.C,U2*%
X134780100Y-113242400D03*
X134780100Y-114342400D03*
%TD*%
D25*
%TO.C,NTC1*%
X122070100Y-114362400D03*
X123670100Y-114362400D03*
%TD*%
D26*
%TO.C,F3*%
X137970100Y-74201400D03*
X137970100Y-77503400D03*
%TD*%
D14*
%TO.C,R24*%
X144280100Y-104972400D03*
X142880100Y-104972400D03*
%TD*%
D27*
%TO.C,R10*%
X135340100Y-72432400D03*
X135340100Y-75734400D03*
%TD*%
D28*
%TO.C,U9*%
X146735100Y-78617400D03*
X146735100Y-79887400D03*
X146735100Y-81157400D03*
X146735100Y-82427400D03*
X152425100Y-82427400D03*
X152425100Y-81157400D03*
X152425100Y-79887400D03*
X152425100Y-78617400D03*
%TD*%
D29*
%TO.C,D2*%
X155711100Y-69908400D03*
X157489100Y-69908400D03*
X156600100Y-67876400D03*
%TD*%
D23*
%TO.C,C10*%
X159380100Y-72702400D03*
X159380100Y-71302400D03*
%TD*%
D14*
%TO.C,R12*%
X122840100Y-73962400D03*
X121440100Y-73962400D03*
%TD*%
D18*
%TO.C,Sw4*%
X122940100Y-94302400D03*
X122940100Y-101802400D03*
%TD*%
D22*
%TO.C,R23*%
X137460100Y-101142400D03*
X137460100Y-102542400D03*
%TD*%
D27*
%TO.C,R9*%
X132800100Y-72432400D03*
X132800100Y-75734400D03*
%TD*%
D13*
%TO.C,R11*%
X121480100Y-112632400D03*
X122880100Y-112632400D03*
%TD*%
D24*
%TO.C,U3*%
X132420100Y-113242400D03*
X132420100Y-114342400D03*
%TD*%
D30*
%TO.C,U7*%
X144021850Y-101462400D03*
X144671850Y-101462400D03*
X145321850Y-101462400D03*
X145321850Y-99262400D03*
X144021850Y-99262400D03*
%TD*%
D31*
%TO.C,P2*%
X166120100Y-55602400D03*
X161120100Y-55602400D03*
X156120100Y-55602400D03*
%TD*%
D32*
%TO.C,Sw1*%
X127230100Y-69562400D03*
X127230100Y-62062400D03*
%TD*%
D17*
%TO.C,D12*%
X134982600Y-94822400D03*
X133077600Y-94822400D03*
%TD*%
D33*
%TO.C,L1*%
X141000100Y-99042400D03*
X141000100Y-101642400D03*
%TD*%
D13*
%TO.C,R20*%
X150690100Y-101092400D03*
X152090100Y-101092400D03*
%TD*%
D12*
%TO.C,R5*%
X128830100Y-114472400D03*
X128830100Y-113072400D03*
%TD*%
D31*
%TO.C,P12*%
X130090100Y-53832400D03*
X125090100Y-53832400D03*
X120090100Y-53832400D03*
%TD*%
D34*
%TO.C,D1*%
X146070100Y-103072400D03*
X143970100Y-103072400D03*
%TD*%
D14*
%TO.C,R16*%
X122840100Y-72532400D03*
X121440100Y-72532400D03*
%TD*%
D13*
%TO.C,R17*%
X123300100Y-85062400D03*
X124700100Y-85062400D03*
%TD*%
D19*
%TO.C,P3*%
X158800100Y-78592400D03*
D20*
X156260100Y-78592400D03*
%TD*%
D23*
%TO.C,C13*%
X129630100Y-79212400D03*
X129630100Y-77812400D03*
%TD*%
D15*
%TO.C,R8*%
X160230100Y-74099900D03*
X160230100Y-76004900D03*
%TD*%
D23*
%TO.C,C4*%
X150020100Y-117062400D03*
X150020100Y-115662400D03*
%TD*%
D26*
%TO.C,F4*%
X140590100Y-74211400D03*
X140590100Y-77513400D03*
%TD*%
D32*
%TO.C,Sw2*%
X123140100Y-69562400D03*
X123140100Y-62062400D03*
%TD*%
D23*
%TO.C,C11*%
X127300100Y-77722400D03*
X127300100Y-76322400D03*
%TD*%
D22*
%TO.C,R4*%
X133600100Y-113072400D03*
X133600100Y-114472400D03*
%TD*%
D29*
%TO.C,D3*%
X135009100Y-67996400D03*
X133231100Y-67996400D03*
X134120100Y-70028400D03*
%TD*%
D13*
%TO.C,R15*%
X129990100Y-94822400D03*
X131390100Y-94822400D03*
%TD*%
D26*
%TO.C,F2*%
X155680100Y-65133400D03*
X155680100Y-61831400D03*
%TD*%
D23*
%TO.C,C9*%
X144800100Y-81322400D03*
X144800100Y-79922400D03*
%TD*%
D14*
%TO.C,R30*%
X122970100Y-87772400D03*
X121570100Y-87772400D03*
%TD*%
D12*
%TO.C,R2*%
X131220100Y-114472400D03*
X131220100Y-113072400D03*
%TD*%
D23*
%TO.C,C5*%
X144030100Y-97942400D03*
X144030100Y-96542400D03*
%TD*%
D22*
%TO.C,R28*%
X124390100Y-86372400D03*
X124390100Y-87772400D03*
%TD*%
D35*
%TO.C,U5*%
X126270100Y-83637400D03*
X126270100Y-84907400D03*
X126270100Y-86177400D03*
X126270100Y-87447400D03*
X131670100Y-87447400D03*
X131670100Y-86177400D03*
X131670100Y-84907400D03*
X131670100Y-83637400D03*
%TD*%
D23*
%TO.C,C3*%
X151440100Y-117062400D03*
X151440100Y-115662400D03*
%TD*%
D13*
%TO.C,R14*%
X129990100Y-92332400D03*
X131390100Y-92332400D03*
%TD*%
D23*
%TO.C,C1*%
X136130100Y-117252400D03*
X136130100Y-115852400D03*
%TD*%
D36*
%TO.C,U8*%
X152140850Y-97366400D03*
X150362850Y-97366400D03*
X151251850Y-99398400D03*
%TD*%
D37*
%TO.C,P1*%
X152910100Y-121437400D03*
X130630100Y-121437400D03*
D38*
X151520100Y-119037400D03*
X151020100Y-119037400D03*
X150520100Y-119037400D03*
X150020100Y-119037400D03*
X149520100Y-119037400D03*
X149020100Y-119037400D03*
X148520100Y-119037400D03*
X148020100Y-119037400D03*
X147520100Y-119037400D03*
X147020100Y-119037400D03*
X146520100Y-119037400D03*
X146020100Y-119037400D03*
X145520100Y-119037400D03*
X145020100Y-119037400D03*
X144520100Y-119037400D03*
X144020100Y-119037400D03*
X143520100Y-119037400D03*
X143020100Y-119037400D03*
X142520100Y-119037400D03*
X142020100Y-119037400D03*
X141520100Y-119037400D03*
X141020100Y-119037400D03*
X140520100Y-119037400D03*
X140020100Y-119037400D03*
X139520100Y-119037400D03*
X139020100Y-119037400D03*
X138520100Y-119037400D03*
X138020100Y-119037400D03*
X137520100Y-119037400D03*
X137020100Y-119037400D03*
X136520100Y-119037400D03*
X136020100Y-119037400D03*
X135520100Y-119037400D03*
X135020100Y-119037400D03*
X134520100Y-119037400D03*
X134020100Y-119037400D03*
X133520100Y-119037400D03*
X133020100Y-119037400D03*
X132520100Y-119037400D03*
X132020100Y-119037400D03*
%TD*%
D26*
%TO.C,F1*%
X158620100Y-65133400D03*
X158620100Y-61831400D03*
%TD*%
D39*
%TO.C,Q1*%
X139450100Y-103402400D03*
X139450100Y-105302400D03*
X141450100Y-104352400D03*
%TD*%
D40*
%TO.C,U10*%
X125207600Y-72507400D03*
X125207600Y-73157400D03*
X125207600Y-73807400D03*
X125207600Y-74457400D03*
X129607600Y-74457400D03*
X129607600Y-73807400D03*
X129607600Y-73157400D03*
X129607600Y-72507400D03*
%TD*%
D24*
%TO.C,U1*%
X137180100Y-113242400D03*
X137180100Y-114342400D03*
%TD*%
%TO.C,U4*%
X130030100Y-113242400D03*
X130030100Y-114342400D03*
%TD*%
D14*
%TO.C,R31*%
X122970100Y-90302400D03*
X121570100Y-90302400D03*
%TD*%
D23*
%TO.C,C12*%
X133500100Y-84282400D03*
X133500100Y-85682400D03*
%TD*%
M02*
